<?xml version="1.0" standalone="no"?>
<!DOCTYPE svg PUBLIC "-//W3C//DTD SVG 20010904//EN"
 "http://www.w3.org/TR/2001/REC-SVG-20010904/DTD/svg10.dtd">
<svg version="1.0" xmlns="http://www.w3.org/2000/svg"
 width="550.000000pt" height="600.000000pt" viewBox="0 0 550.000000 600.000000"
 preserveAspectRatio="xMidYMid meet">

<g transform="translate(0.000000,600.000000) scale(0.100000,-0.100000)"
fill="#000000" stroke="none">
<path d="M2649 5955 c-45 -16 -84 -41 -228 -144 -63 -45 -146 -101 -185 -123
-224 -132 -640 -276 -991 -344 -119 -23 -165 -26 -540 -34 -541 -12 -534 -12
-589 -44 -47 -27 -86 -85 -86 -126 0 -11 24 -84 54 -163 95 -252 106 -313 133
-713 19 -288 21 -231 -33 -1064 -19 -291 -21 -723 -5 -845 55 -413 196 -711
461 -976 132 -132 243 -217 420 -322 128 -76 585 -331 765 -427 171 -91 400
-251 599 -419 210 -179 245 -198 346 -188 31 2 74 14 96 25 21 11 122 91 224
177 230 195 384 299 668 454 785 428 881 490 1088 695 156 156 234 263 314
430 87 184 139 376 161 604 16 165 6 606 -26 1072 -30 433 -30 706 -1 1000 21
205 41 292 111 477 68 180 70 216 19 272 -61 68 -72 70 -579 80 -482 10 -528
15 -784 77 -156 38 -468 144 -609 207 -153 69 -230 114 -407 240 -77 55 -158
108 -180 118 -48 22 -162 24 -216 4z m-308 -506 c4 -19 7 -27 8 -19 1 13 2 13
11 0 8 -12 10 -9 10 11 0 15 6 32 13 38 16 13 28 5 20 -15 -3 -9 2 -14 16 -14
12 0 24 -7 27 -15 4 -10 14 -13 29 -9 31 8 55 -20 55 -62 0 -19 5 -34 10 -34
6 0 10 -4 10 -10 0 -5 -7 -10 -17 -10 -14 0 -14 -2 3 -21 21 -24 9 -54 -23
-53 -11 0 -19 -7 -19 -17 0 -14 5 -15 28 -7 39 14 61 -5 56 -49 -3 -22 0 -33
9 -33 30 0 10 -30 -27 -41 -23 -7 -40 -18 -40 -27 0 -11 -8 -13 -34 -8 -20 4
-37 2 -41 -4 -4 -7 -12 -7 -26 0 -15 9 -19 7 -19 -5 0 -8 -7 -15 -15 -15 -8 0
-15 -9 -15 -20 0 -11 -4 -20 -10 -20 -5 0 -10 7 -10 16 0 9 -9 18 -21 21 -12
3 -18 11 -15 19 7 17 -6 18 -22 2 -9 -9 -16 -9 -28 4 -14 13 -21 14 -36 5 -16
-10 -22 -9 -34 7 -8 11 -14 17 -14 13 0 -11 -63 28 -68 41 -2 7 3 12 10 12 10
0 13 9 11 28 -3 15 2 36 10 46 12 16 18 17 45 8 26 -9 30 -8 25 4 -3 8 -11 14
-19 14 -24 0 -35 35 -18 58 14 20 14 22 0 22 -9 0 -16 5 -16 10 0 6 5 10 10
10 6 0 10 12 10 28 0 41 27 75 56 69 14 -2 25 1 28 9 3 8 15 14 26 14 14 0 20
7 20 21 0 33 24 16 31 -22z m749 -103 l0 -44 -64 0 c-48 1 -63 4 -59 13 2 7 0
16 -6 20 -7 3 -11 -2 -11 -14 0 -12 -4 -21 -10 -21 -5 0 -10 14 -10 30 0 27 3
30 34 30 24 0 36 -5 39 -17 3 -11 5 -7 6 10 1 31 21 38 21 7 0 -18 2 -19 20
-8 11 7 20 18 20 25 0 7 5 13 10 13 6 0 10 -20 10 -44z m120 -6 l0 -39 -54 0
c-54 0 -55 1 -54 30 1 26 5 30 27 28 46 -4 61 1 61 17 0 8 5 12 10 9 6 -3 10
-24 10 -45z m90 23 c0 -20 3 -24 9 -14 5 8 18 12 30 8 14 -3 21 0 21 8 0 8 5
17 10 20 6 4 10 -12 10 -39 0 -46 0 -46 -35 -46 -21 0 -35 5 -36 13 0 10 -2
10 -6 0 -6 -15 -49 -17 -58 -3 -10 16 5 50 21 50 8 0 14 7 14 15 0 8 5 15 10
15 6 0 10 -12 10 -27z m-620 -13 c0 -16 5 -30 10 -30 6 0 10 14 10 30 0 17 5
30 11 30 6 0 9 -16 7 -37 -3 -33 -6 -38 -28 -38 -22 0 -25 5 -28 38 -2 21 1
37 7 37 6 0 11 -13 11 -30z m130 20 c0 -5 7 -10 15 -10 8 0 15 -6 15 -12 0 -9
3 -9 8 -3 4 6 22 12 40 13 29 2 32 0 32 -28 0 -23 -4 -30 -20 -30 -10 0 -24 8
-29 18 -10 16 -10 16 -11 0 0 -25 -25 -22 -38 5 l-11 22 0 -22 c-1 -30 -41
-33 -41 -3 0 11 -4 20 -10 20 -5 0 -10 -9 -10 -20 0 -11 -4 -20 -10 -20 -5 0
-10 14 -10 31 0 28 2 30 33 28 21 -2 31 1 30 9 -2 7 2 12 7 12 6 0 10 -4 10
-10z m438 -117 c-5 -26 -38 -29 -38 -4 0 15 6 21 21 21 14 0 19 -5 17 -17z
m-488 -8 c15 -18 5 -64 -15 -71 -12 -5 -9 -13 11 -40 24 -31 25 -34 9 -41 -13
-4 -26 3 -45 27 l-27 34 1 -30 c1 -20 -4 -30 -16 -32 -16 -3 -18 6 -18 82 l0
86 44 0 c26 0 48 -6 56 -15z m124 -41 c25 -24 20 -69 -10 -93 -49 -39 -94 -17
-94 44 0 41 22 65 60 65 16 0 36 -7 44 -16z m96 1 c0 -9 -9 -15 -22 -15 -22
-1 -21 -2 5 -16 49 -27 28 -84 -32 -84 -14 0 -21 6 -21 19 0 14 5 18 20 14 11
-3 20 0 20 5 0 6 -9 16 -20 22 -19 10 -27 49 -13 63 13 14 63 7 63 -8z m118 3
c7 -7 12 -33 12 -59 l0 -46 -42 -6 c-45 -6 -68 5 -68 32 0 24 20 41 47 41 13
0 23 5 23 10 0 6 -13 10 -30 10 -20 0 -30 5 -30 15 0 19 70 21 88 3z m102 -2
c0 -8 -7 -16 -15 -20 -10 -3 -15 -19 -15 -44 0 -43 -6 -53 -26 -45 -10 4 -14
23 -14 64 l0 59 35 0 c23 0 35 -5 35 -14z m48 -48 c-2 -48 -7 -63 -18 -63 -11
0 -16 15 -18 63 -3 57 -1 62 18 62 19 0 21 -5 18 -62z m120 50 c7 -7 12 -29
12 -49 0 -61 -59 -90 -100 -49 -24 24 -26 67 -3 92 18 20 73 24 91 6z m-971
-275 c22 -35 33 -43 61 -43 28 0 28 -21 1 -46 -17 -15 -20 -26 -15 -56 7 -45
-4 -54 -44 -33 -27 14 -33 14 -60 0 -16 -8 -31 -15 -35 -15 -3 0 -5 20 -5 43
0 31 -6 49 -20 62 -25 23 -26 45 -1 45 33 0 51 11 67 41 18 36 29 36 51 2z
m403 -3 c9 -22 21 -31 46 -36 46 -8 49 -17 19 -52 -19 -23 -24 -37 -19 -60 8
-38 -7 -47 -46 -27 -29 15 -34 15 -55 1 -38 -25 -47 -20 -44 24 2 29 -2 45
-19 63 -31 33 -28 44 17 51 32 5 41 11 49 36 14 38 36 38 52 0z m400 0 c9 -22
21 -31 46 -36 46 -8 51 -21 21 -52 -19 -22 -23 -34 -20 -64 6 -43 -7 -49 -46
-22 -22 16 -25 16 -51 0 -44 -25 -53 -21 -48 22 4 29 0 43 -19 65 -28 34 -24
43 21 51 25 5 37 14 46 36 7 17 18 30 25 30 7 0 18 -13 25 -30z m714 -385
c-20 -25 -43 -45 -50 -45 -20 0 -18 9 12 52 19 26 34 38 51 38 24 0 24 -1 -13
-45z m-3044 -95 c59 -30 98 -90 58 -90 -5 0 -19 12 -31 26 -56 72 -189 70
-247 -4 -54 -68 -48 -156 14 -219 69 -69 160 -71 227 -4 36 36 59 42 59 17 0
-17 -48 -60 -89 -81 -52 -26 -147 -17 -198 18 -84 58 -111 170 -62 257 56 100
166 132 269 80z m386 15 c112 -33 173 -157 129 -263 -83 -198 -385 -140 -385
74 0 92 64 173 152 194 48 11 50 11 104 -5z m1394 -10 c36 -19 83 -72 76 -84
-11 -17 -21 -13 -60 24 -78 73 -201 51 -251 -46 -20 -37 -19 -114 1 -149 32
-53 81 -69 153 -50 20 5 48 11 62 14 14 3 36 15 49 26 29 25 36 25 57 0 10
-11 23 -20 30 -20 21 0 58 68 103 188 37 96 46 112 65 112 19 0 29 -17 70
-127 27 -71 61 -155 77 -188 15 -33 28 -67 28 -75 0 -8 23 -28 50 -43 28 -16
50 -30 50 -33 0 -3 -9 0 -19 6 -34 18 -31 11 12 -29 26 -25 46 -36 52 -30 5 5
22 9 37 9 24 0 32 -8 62 -67 18 -38 43 -79 55 -93 l20 -25 1 23 c1 68 104 162
177 162 39 0 93 -22 123 -50 27 -25 30 -33 20 -45 -17 -21 -30 -19 -61 11 -16
15 -43 28 -67 31 -35 5 -44 1 -78 -30 -34 -31 -39 -41 -39 -81 0 -62 42 -106
107 -113 39 -5 49 -2 80 26 31 27 37 29 54 16 24 -17 13 -39 -36 -73 -30 -20
-54 -28 -133 -46 -15 -4 -26 -10 -23 -15 24 -38 -415 -64 -939 -57 -214 3
-426 10 -470 16 -44 6 -89 12 -101 14 -32 5 -56 22 -140 106 -89 89 -57 230
63 276 53 20 111 13 170 -22 l42 -24 27 35 c14 19 32 35 38 35 7 0 21 7 32 16
17 14 17 15 1 10 -34 -11 -6 15 67 62 39 25 73 47 75 49 2 1 -3 11 -12 21 -49
54 -62 173 -27 242 47 92 178 133 270 85z m770 -5 c41 -21 83 -67 74 -81 -9
-16 -33 -10 -44 11 -15 28 -82 60 -127 60 -81 -1 -163 -82 -163 -163 0 -55 43
-118 102 -148 65 -33 133 -18 188 43 24 26 32 30 42 20 29 -29 -55 -99 -135
-112 -161 -26 -284 130 -218 276 48 106 175 148 281 94z m494 19 c143 -36 202
-209 109 -319 -118 -141 -356 -58 -356 124 0 91 50 160 139 191 48 17 55 18
108 4z m-2245 -19 c48 -24 87 -70 101 -118 14 -50 13 -72 -5 -123 -33 -92 -96
-128 -222 -129 l-83 0 0 195 0 195 85 0 c65 0 95 -5 124 -20z m211 -175 c0
-188 -1 -195 -20 -195 -19 0 -20 7 -20 195 0 188 1 195 20 195 19 0 20 -7 20
-195z m300 180 c0 -12 -17 -15 -90 -15 l-90 0 0 -75 0 -75 90 0 c73 0 90 -3
90 -15 0 -12 -17 -15 -90 -15 l-90 0 0 -90 c0 -83 -1 -90 -20 -90 -19 0 -20 7
-20 195 l0 195 110 0 c91 0 110 -3 110 -15z m112 -140 c1 -85 2 -174 3 -197 0
-39 -2 -43 -25 -43 -21 0 -25 5 -24 28 0 15 1 104 2 197 2 163 3 170 22 170
19 0 20 -7 22 -155z m1308 -40 c0 -188 -1 -195 -20 -195 -19 0 -20 7 -20 195
0 188 1 195 20 195 19 0 20 -7 20 -195z m690 36 l115 -159 3 159 c2 151 4 159
22 159 19 0 20 -7 20 -195 0 -185 -1 -195 -19 -195 -13 0 -56 51 -138 161
l-118 161 -3 -161 c-2 -153 -4 -161 -22 -161 -19 0 -20 7 -20 195 l0 195 23 0
c17 -1 48 -37 137 -159z m441 73 l52 -85 55 85 c38 61 60 86 74 86 22 0 24 3
-69 -143 -42 -66 -43 -68 -43 -157 0 -73 -3 -90 -15 -90 -12 0 -15 16 -15 88
l0 89 -56 89 c-79 126 -78 124 -55 124 14 0 35 -25 72 -86z m-601 -342 c0 -16
-68 -74 -84 -70 -26 5 30 78 61 78 12 0 23 -4 23 -8z m-2379 -117 c72 -47 91
-162 39 -235 -61 -86 -195 -92 -263 -11 -127 151 58 356 224 246z m2390 10
c49 -26 79 -81 79 -146 0 -70 -27 -115 -90 -147 -81 -42 -184 -10 -225 68 -19
37 -19 123 0 160 40 78 151 108 236 65z m-2985 -19 c26 -26 34 -42 34 -70 0
-79 -53 -126 -140 -126 l-40 0 0 -51 c0 -47 -2 -50 -22 -47 -23 3 -23 6 -26
166 l-2 162 81 0 c79 0 82 -1 115 -34z m265 5 c23 -24 29 -38 29 -75 0 -36 -5
-50 -29 -73 l-29 -28 35 -62 35 -63 -29 0 c-24 0 -33 9 -61 60 -29 52 -37 60
-62 60 -30 0 -30 0 -30 -60 0 -57 -1 -60 -25 -60 l-25 0 0 165 0 165 81 0 c76
0 82 -2 110 -29z m2429 -136 l0 -165 -25 0 -25 0 0 165 0 165 25 0 25 0 0
-165z m547 49 l78 -116 3 116 c3 116 3 116 27 116 l25 0 0 -165 0 -165 -23 0
c-19 0 -41 25 -108 123 l-84 122 -3 -122 -3 -123 -24 0 -25 0 0 165 0 165 29
0 c26 0 38 -12 108 -116z m223 -343 c61 -32 116 -86 148 -146 26 -49 27 -55
30 -254 3 -169 1 -212 -13 -255 -30 -92 -104 -169 -192 -200 -32 -11 -200 -15
-874 -21 -459 -4 -835 -8 -836 -10 -2 -1 74 -12 168 -25 138 -19 172 -21 179
-11 6 11 9 10 16 -2 7 -11 34 -16 107 -19 92 -4 97 -3 98 17 0 20 0 20 11 -1
8 -18 21 -22 101 -27 55 -4 93 -2 95 3 6 16 22 12 22 -5 0 -8 9 -15 20 -15 26
0 100 -32 100 -44 0 -5 -12 -25 -27 -45 -16 -20 -26 -40 -25 -46 2 -5 0 -7 -4
-2 -12 11 -64 -44 -64 -68 0 -48 -43 -185 -86 -273 l-45 -93 31 -39 c19 -24
40 -40 53 -40 11 0 28 -7 38 -16 16 -14 19 -12 43 28 93 160 136 313 145 528
5 122 9 147 15 116 5 -22 6 -89 3 -150 -10 -168 -54 -324 -134 -464 -31 -54
-38 -77 -38 -119 0 -41 -5 -57 -22 -75 -17 -16 -23 -18 -23 -8 -1 11 -4 10
-15 -4 -18 -24 -19 -40 -2 -30 6 4 -10 -16 -38 -45 -27 -28 -57 -51 -67 -51
-10 0 -18 -6 -18 -14 0 -8 -6 -17 -12 -19 -21 -9 12 -27 52 -28 19 -1 46 -2
58 -3 19 -1 27 7 39 39 8 22 17 52 20 67 6 34 27 52 49 44 14 -6 16 -17 11
-80 -4 -40 -11 -86 -17 -100 -5 -15 -10 -45 -10 -66 0 -21 -4 -42 -10 -45 -28
-17 -1 -25 83 -25 143 0 312 -18 422 -44 109 -27 275 -84 275 -95 0 -12 -736
-431 -802 -456 -13 -5 -19 5 -32 48 -8 29 -24 61 -35 71 -15 13 -17 23 -11 44
23 76 35 145 35 217 1 44 4 121 8 170 5 65 4 82 -3 60 -6 -16 -11 -41 -11 -55
-2 -51 -11 -80 -24 -80 -18 0 -30 -111 -21 -198 4 -37 4 -63 0 -59 -4 4 -15 0
-24 -8 -15 -13 -16 -11 -14 23 1 20 3 42 5 47 1 6 -6 27 -15 48 -21 49 -34
167 -17 167 7 0 11 -20 11 -52 0 -62 18 -134 30 -122 4 5 11 51 14 103 4 52
11 100 17 107 8 9 2 10 -26 4 -19 -4 -35 -5 -35 -1 0 3 -11 11 -24 17 -22 10
-25 9 -31 -15 -11 -44 -33 -70 -85 -96 -33 -17 -66 -25 -99 -25 -32 0 -53 -5
-58 -14 -4 -7 -21 -20 -38 -29 -16 -9 -25 -16 -20 -17 7 0 8 -22 4 -62 -5 -51
-3 -69 12 -96 18 -31 18 -32 0 -32 -11 0 -35 16 -55 36 -22 22 -34 29 -30 18
11 -32 83 -92 127 -107 23 -8 65 -22 92 -30 l50 -15 -40 -2 c-22 -1 -53 -5
-70 -9 -29 -7 -29 -7 -7 -15 22 -7 31 -26 11 -26 -21 0 -50 22 -46 34 3 7 -1
13 -9 13 -16 0 -18 -30 -4 -58 18 -32 83 -59 149 -60 51 -1 63 -5 75 -24 l15
-22 -105 -7 c-57 -4 -108 -4 -114 -1 -7 4 -10 -7 -8 -32 4 -74 -3 -159 -12
-138 -7 18 -8 16 -12 -10 -3 -23 -6 -15 -12 30 -14 107 -26 118 -21 18 l5 -92
-138 -117 c-157 -134 -201 -158 -287 -158 -85 -1 -123 22 -320 190 -219 186
-384 296 -730 484 -339 185 -583 324 -690 395 -117 78 -264 204 -340 293 -259
299 -376 620 -392 1070 l-6 173 269 -3 269 -3 -25 50 c-24 47 -25 59 -28 254
-3 170 0 212 14 258 28 89 117 174 214 204 14 4 828 7 1810 6 l1785 -2 45 -24z
m595 -1028 c-7 -78 -26 -143 -43 -143 -4 0 2 42 15 93 12 50 23 100 23 110 0
9 3 17 6 17 4 0 3 -35 -1 -77z m-40 -250 c-5 -15 -7 -32 -6 -36 1 -5 -3 -6 -8
-3 -5 4 -5 20 2 41 12 41 23 39 12 -2z m-34 -120 c-12 -20 -14 -14 -5 12 4 9
9 14 11 11 3 -2 0 -13 -6 -23z m-1701 -1015 l-4 -53 -6 50 c-6 52 -4 68 8 61
4 -2 5 -28 2 -58z m-195 12 c-4 -23 -2 -30 11 -30 13 0 15 6 11 30 -4 17 -2
30 2 30 22 0 39 -13 35 -25 -3 -7 -2 -28 3 -47 5 -18 6 -51 2 -73 -6 -37 -6
-36 -9 20 -1 33 -6 74 -11 90 -4 18 -6 -14 -3 -79 3 -60 8 -114 11 -119 3 -6
1 -7 -4 -4 -6 4 -14 32 -18 62 -6 55 -25 77 -25 30 0 -14 -4 -25 -9 -25 -10 0
-23 88 -14 103 3 5 1 7 -4 4 -6 -4 -13 2 -16 13 -3 13 0 20 9 20 8 0 17 7 20
15 10 25 15 17 9 -15z m118 -74 c3 -8 -2 -16 -14 -19 -14 -4 -19 0 -19 14 0
22 25 26 33 5z m84 -73 c-2 -16 -4 -3 -4 27 0 30 2 43 4 28 2 -16 2 -40 0 -55z
m136 -35 c-9 -24 -27 -57 -40 -74 -22 -29 -26 -31 -52 -21 l-29 11 43 27 c23
15 46 33 51 41 6 10 3 10 -12 -1 -10 -8 -3 2 16 22 19 20 36 37 37 37 2 0 -5
-19 -14 -42z m-108 -58 c-3 -5 -14 -10 -23 -10 -15 0 -15 2 -2 10 20 13 33 13
25 0z m15 -55 c0 -19 -24 -30 -41 -19 -9 5 -7 11 6 21 24 17 35 17 35 -2z
m114 -47 c23 -32 9 -40 -20 -11 -14 14 -31 22 -40 19 -9 -3 -12 -1 -9 4 11 18
53 11 69 -12z"/>
<path d="M2459 5393 c-13 -16 -12 -17 4 -4 9 7 17 15 17 17 0 8 -8 3 -21 -13z"/>
<path d="M2305 5380 c6 -8 10 -18 10 -22 0 -17 12 -15 24 4 7 12 8 17 1 13 -6
-4 -18 -1 -27 7 -14 11 -15 11 -8 -2z"/>
<path d="M2377 5359 c3 -10 9 -16 14 -13 13 8 11 21 -5 27 -10 4 -12 0 -9 -14z"/>
<path d="M2466 5355 c4 -8 11 -15 16 -15 6 0 5 6 -2 15 -7 8 -14 15 -16 15 -2
0 -1 -7 2 -15z"/>
<path d="M2374 5299 c4 -19 1 -38 -6 -48 -7 -9 2 -3 20 14 36 33 37 44 3 57
-22 8 -23 6 -17 -23z"/>
<path d="M2438 5313 c7 -3 16 -2 19 1 4 3 -2 6 -13 5 -11 0 -14 -3 -6 -6z"/>
<path d="M2277 5283 c-4 -3 -7 -17 -7 -29 0 -21 2 -22 24 -13 21 10 23 14 13
30 -13 20 -20 23 -30 12z"/>
<path d="M2408 5223 c6 -2 18 -2 25 0 6 3 1 5 -13 5 -14 0 -19 -2 -12 -5z"/>
<path d="M2395 5180 c30 -31 38 -30 50 8 6 21 5 21 -22 11 -19 -7 -29 -7 -31
0 -2 6 -9 11 -15 11 -6 0 2 -14 18 -30z"/>
<path d="M2240 5191 c0 -6 4 -13 10 -16 6 -3 7 1 4 9 -7 18 -14 21 -14 7z"/>
<path d="M2320 5170 c-18 -25 -19 -34 -10 -45 7 -8 18 -15 26 -15 10 0 11 6 2
31 -8 24 -8 33 3 40 7 4 11 11 7 14 -3 3 -16 -8 -28 -25z"/>
<path d="M2462 5180 c0 -14 2 -19 5 -12 2 6 2 18 0 25 -3 6 -5 1 -5 -13z"/>
<path d="M2330 5060 c0 -19 3 -21 12 -12 9 9 9 15 0 24 -9 9 -12 7 -12 -12z"/>
<path d="M2371 5054 c0 -11 3 -14 6 -6 3 7 2 16 -1 19 -3 4 -6 -2 -5 -13z"/>
<path d="M3170 5330 c0 -5 5 -10 10 -10 6 0 10 5 10 10 0 6 -4 10 -10 10 -5 0
-10 -4 -10 -10z"/>
<path d="M3265 5330 c-3 -5 -1 -10 4 -10 6 0 11 5 11 10 0 6 -2 10 -4 10 -3 0
-8 -4 -11 -10z"/>
<path d="M2690 5209 c0 -25 33 -22 38 4 2 12 -3 17 -17 17 -15 0 -21 -6 -21
-21z"/>
<path d="M2817 5175 c-9 -22 3 -46 22 -43 10 2 16 13 16 28 0 28 -29 40 -38
15z"/>
<path d="M3047 5143 c-12 -12 -7 -22 8 -17 8 4 15 10 15 15 0 11 -14 12 -23 2z"/>
<path d="M3307 5183 c-4 -3 -7 -17 -7 -30 0 -26 34 -33 44 -8 11 30 -17 59
-37 38z"/>
<path d="M1120 4419 c-54 -32 -74 -65 -78 -134 -3 -50 0 -66 20 -94 39 -58 72
-76 137 -76 48 0 64 5 94 28 48 37 67 75 67 135 0 123 -135 202 -240 141z"/>
<path d="M2901 4327 c-17 -46 -31 -86 -31 -90 0 -4 29 -7 65 -7 36 0 65 3 65
8 0 8 -59 165 -64 170 -2 1 -17 -35 -35 -81z"/>
<path d="M2895 4171 l-40 -7 35 -7 c19 -4 59 -18 89 -32 30 -14 56 -23 58 -21
3 3 0 21 -7 40 -11 34 -14 36 -53 35 -23 -1 -60 -5 -82 -8z"/>
<path d="M1944 3866 c-27 -27 -34 -42 -34 -72 0 -44 4 -51 44 -82 39 -30 64
-28 77 5 8 22 7 30 -5 39 -9 6 -16 21 -16 33 0 23 33 41 76 41 31 0 31 14 -1
45 -38 39 -97 35 -141 -9z"/>
<path d="M3788 4420 c-98 -53 -113 -187 -29 -263 83 -75 202 -53 252 44 38 75
17 160 -54 213 -38 28 -122 32 -169 6z"/>
<path d="M1500 4274 l0 -167 66 6 c83 8 126 34 155 93 56 118 -27 233 -168
234 l-53 0 0 -166z"/>
<path d="M1590 3888 c-71 -48 -71 -148 -1 -195 80 -54 181 2 181 101 0 51 -50
105 -105 112 -31 5 -48 1 -75 -18z"/>
<path d="M3998 3894 c-77 -41 -75 -169 2 -209 81 -42 170 13 170 105 0 92 -92
148 -172 104z"/>
<path d="M1010 3840 l0 -70 45 0 c54 0 85 25 85 69 0 40 -40 71 -91 71 l-39 0
0 -70z"/>
<path d="M1280 3846 l0 -66 31 0 c32 0 69 15 81 34 13 19 9 63 -7 76 -8 7 -35
15 -60 18 l-45 5 0 -67z"/>
<path d="M2660 3065 l0 -315 60 0 60 0 0 130 0 130 120 0 120 0 0 -130 0 -130
55 0 55 0 0 315 0 315 -55 0 -55 0 0 -130 0 -130 -120 0 -119 0 -3 128 -3 127
-57 3 -58 3 0 -316z"/>
<path d="M3435 3371 c-95 -25 -164 -81 -207 -169 -29 -58 -33 -76 -32 -142 1
-122 64 -224 172 -277 50 -24 68 -28 147 -28 78 0 97 4 141 27 28 15 72 50 97
78 174 194 41 504 -223 516 -36 2 -78 0 -95 -5z m174 -130 c128 -66 148 -232
38 -328 -65 -57 -142 -67 -224 -29 -67 32 -105 86 -111 160 -6 70 10 114 57
160 69 67 154 80 240 37z"/>
<path d="M3890 3065 l0 -315 55 0 55 0 0 215 c0 118 3 215 8 215 4 0 68 -97
142 -215 l135 -215 63 0 62 0 0 315 0 316 -57 -3 -58 -3 -5 -207 -5 -207 -133
210 -133 209 -65 0 -64 0 0 -315z"/>
<path d="M1180 3060 l0 -310 60 0 60 0 0 90 0 90 68 0 c87 0 128 12 176 52
116 95 98 290 -32 361 -47 26 -56 27 -191 27 l-141 0 0 -310z m277 184 c61
-45 67 -122 13 -176 -26 -25 -35 -28 -99 -28 l-71 0 0 116 0 116 65 -4 c45 -3
73 -10 92 -24z"/>
<path d="M1710 3204 l100 -165 0 -145 0 -144 55 0 55 0 0 144 0 145 100 165
99 166 -63 0 -64 0 -62 -105 c-34 -58 -63 -105 -65 -105 -2 0 -31 47 -65 105
l-62 105 -64 0 -63 0 99 -166z"/>
<path d="M2150 3320 l0 -49 83 -3 82 -3 3 -257 2 -258 55 0 55 0 2 258 3 257
83 3 82 3 0 49 0 50 -225 0 -225 0 0 -50z"/>
<path d="M1028 2613 c7 -3 16 -2 19 1 4 3 -2 6 -13 5 -11 0 -14 -3 -6 -6z"/>
<path d="M1780 2610 l-55 -7 60 -2 c51 -1 67 -7 102 -34 130 -99 223 -293 223
-468 0 -126 36 -266 83 -319 17 -18 17 -21 3 -10 -18 14 -19 14 -6 -10 117
-223 349 -377 609 -406 60 -6 63 -6 53 12 -6 10 -22 30 -36 43 -14 13 -45 54
-67 90 -23 36 -64 100 -91 142 -32 50 -48 86 -48 107 0 22 -5 32 -15 32 -51 0
-235 111 -301 182 -94 99 -164 244 -182 375 -8 58 -17 80 -41 110 l-32 38 25
3 c17 2 23 8 19 18 -3 8 1 14 9 14 8 0 19 12 25 28 10 26 11 26 12 4 1 -23 2
-23 94 -17 75 6 95 11 110 27 14 17 17 17 17 4 0 -21 16 -20 200 14 l155 28
-305 2 c-168 0 -363 2 -435 4 -71 2 -155 0 -185 -4z"/>
<path d="M1238 2603 c89 -2 235 -2 325 0 89 1 16 3 -163 3 -179 0 -252 -2
-162 -3z"/>
<path d="M2126 2360 c27 -192 108 -339 249 -453 64 -51 160 -103 211 -113 27
-5 32 -2 44 25 15 36 83 101 106 101 14 0 14 -3 4 -15 -24 -28 -1 -28 26 0 22
24 31 27 65 22 33 -4 39 -2 39 13 0 15 -13 18 -102 22 -121 5 -195 33 -289
108 -32 25 -65 51 -76 58 -17 12 -17 13 2 7 19 -5 19 -4 -1 12 -89 73 -149
127 -212 187 l-73 71 7 -45z"/>
<path d="M3575 2224 c-44 -44 -107 -98 -140 -120 -33 -21 -65 -46 -72 -54 -19
-24 7 -41 73 -49 33 -4 69 -13 82 -20 22 -11 24 -9 62 71 34 71 89 246 78 251
-1 1 -39 -34 -83 -79z"/>
<path d="M2932 2221 c-11 -7 -10 -10 3 -15 19 -7 35 0 35 15 0 11 -20 12 -38
0z"/>
<path d="M3105 2090 c-6 -9 77 -50 102 -50 8 0 11 -4 8 -10 -3 -5 1 -10 9 -10
21 0 20 13 -1 32 -30 25 -110 51 -118 38z"/>
<path d="M2535 2054 c65 -53 226 -93 307 -77 41 9 40 9 -42 16 -64 5 -111 16
-190 46 -94 36 -102 37 -75 15z"/>
<path d="M3041 2027 c-1 -15 -6 -17 -32 -12 -38 9 -92 -12 -85 -32 4 -8 6 -22
6 -30 0 -10 6 -14 20 -10 10 3 25 -2 31 -9 10 -12 17 -6 41 38 15 28 26 57 24
62 -2 6 -5 3 -5 -7z"/>
<path d="M3060 1997 c0 -3 31 -23 69 -45 l69 -40 -16 29 c-9 15 -18 26 -21 24
-2 -2 -15 2 -30 9 -33 17 -71 29 -71 23z"/>
<path d="M3202 1974 c-10 -20 -9 -28 2 -39 12 -13 16 -11 30 9 14 22 13 25 -3
40 -17 15 -19 14 -29 -10z"/>
<path d="M3318 1992 c-10 -2 -18 -8 -18 -13 0 -6 4 -8 8 -5 5 3 23 -4 40 -15
36 -21 58 -24 67 -9 3 5 -7 15 -22 21 -15 6 -35 14 -43 18 -8 4 -23 5 -32 3z"/>
<path d="M3491 1950 c23 -22 46 -37 50 -34 12 7 -30 48 -64 62 -24 10 -23 7
14 -28z"/>
<path d="M1335 1971 c-97 -26 -171 -85 -212 -169 -24 -48 -28 -69 -28 -137 0
-129 57 -223 170 -283 43 -23 62 -27 140 -27 78 0 97 4 141 27 60 32 118 93
147 157 30 65 30 187 0 253 -27 60 -95 127 -156 156 -53 25 -153 36 -202 23z"/>
<path d="M3405 1930 c-3 -5 3 -10 15 -10 12 0 18 5 15 10 -3 6 -10 10 -15 10
-5 0 -12 -4 -15 -10z"/>
<path d="M3393 1888 c-6 -7 -13 -23 -16 -35 -4 -17 -1 -23 11 -23 12 0 18 10
19 35 2 38 0 41 -14 23z"/>
<path d="M3542 1893 c-7 -3 -19 -20 -27 -38 -9 -22 -20 -33 -32 -33 -10 1 -40
-2 -66 -6 -44 -7 -49 -5 -54 13 -6 24 -23 28 -23 6 0 -9 11 -21 25 -27 14 -6
25 -15 25 -20 0 -17 -106 -167 -119 -168 -8 0 -11 -6 -7 -16 3 -9 6 -17 6 -19
0 -2 13 3 30 11 37 19 89 81 85 103 -6 38 42 78 75 61 21 -11 74 35 67 59 -2
10 -1 25 4 32 6 10 9 6 9 -13 0 -15 4 -30 10 -33 5 -3 7 0 4 8 -3 8 2 17 10
20 17 7 22 37 7 37 -5 0 -11 6 -13 13 -2 8 -9 12 -16 10z"/>
<path d="M3197 1873 c-4 -3 -7 -11 -7 -17 0 -6 5 -5 12 2 6 6 9 14 7 17 -3 3
-9 2 -12 -2z"/>
<path d="M3270 1865 c0 -2 15 -12 33 -20 l32 -16 -24 21 c-22 19 -41 26 -41
15z"/>
<path d="M2691 1838 c-1 -31 40 -81 47 -59 2 7 -1 18 -8 24 -10 9 -11 9 -5 -2
5 -9 4 -12 -3 -7 -7 4 -16 21 -21 39 -9 32 -9 32 -10 5z"/>
<path d="M3575 1810 c-4 -6 1 -10 9 -10 9 0 25 -9 36 -20 10 -10 22 -16 24
-11 6 10 -21 35 -46 44 -10 3 -20 2 -23 -3z"/>
<path d="M3127 1754 c-27 -44 -27 -45 -53 -28 -24 16 -26 16 -42 -1 -13 -15
-13 -16 -1 -7 12 9 20 9 35 -3 19 -13 19 -14 -1 -11 -14 2 -25 -6 -37 -28 -13
-24 -17 -26 -18 -12 0 19 -1 19 -13 2 -11 -16 -17 -17 -36 -6 -13 6 -25 9 -28
7 -8 -9 38 -29 52 -23 8 3 15 0 17 -5 5 -15 58 11 58 28 0 7 5 13 10 13 13 0
13 -17 -1 -26 -6 -4 -9 -20 -6 -39 3 -18 0 -38 -6 -44 -8 -8 -8 -11 0 -11 6 0
13 5 15 11 3 9 10 9 27 0 20 -11 22 -11 17 6 -15 51 -17 71 -7 78 6 3 9 11 6
16 -4 5 -2 9 4 9 6 0 8 6 5 14 -3 8 4 33 16 56 29 57 21 60 -13 4z"/>
<path d="M2990 1766 c0 -3 9 -10 20 -16 11 -6 20 -8 20 -6 0 3 -9 10 -20 16
-11 6 -20 8 -20 6z"/>
<path d="M2752 1724 c-15 -18 -28 -24 -40 -19 -13 5 -14 4 -5 -6 10 -10 21 -6
53 16 43 30 47 35 28 35 -7 0 -23 -12 -36 -26z"/>
<path d="M2850 1744 c0 -3 5 -15 11 -27 31 -58 14 -116 -51 -168 -47 -38 -48
-34 50 -148 39 -45 77 -96 84 -112 11 -27 14 -28 26 -14 11 13 7 21 -28 53
-45 42 -112 134 -112 155 0 7 5 18 12 25 9 9 9 15 0 24 -13 13 -16 32 -4 24 5
-3 17 9 27 27 10 18 23 35 28 39 13 8 16 87 5 111 -8 15 -48 25 -48 11z m-32
-239 c-3 -3 -9 2 -12 12 -6 14 -5 15 5 6 7 -7 10 -15 7 -18z"/>
<path d="M3480 1656 c0 -2 8 -10 18 -17 15 -13 16 -12 3 4 -13 16 -21 21 -21
13z"/>
<path d="M3225 1610 c-3 -5 -2 -10 4 -10 5 0 13 5 16 10 3 6 2 10 -4 10 -5 0
-13 -4 -16 -10z"/>
<path d="M3520 1611 c0 -6 4 -13 10 -16 6 -3 7 1 4 9 -7 18 -14 21 -14 7z"/>
<path d="M3188 1578 c-8 -19 6 -33 22 -23 6 3 10 12 10 18 0 8 -3 7 -9 -2 -7
-11 -10 -10 -13 5 -3 17 -4 17 -10 2z"/>
<path d="M3147 1569 c7 -7 15 -10 18 -7 3 3 -2 9 -12 12 -14 6 -15 5 -6 -5z"/>
<path d="M3255 1485 c-33 -14 -27 -19 39 -30 42 -7 47 7 10 31 -15 10 -25 10
-49 -1z"/>
<path d="M3651 1414 c0 -11 3 -14 6 -6 3 7 2 16 -1 19 -3 4 -6 -2 -5 -13z"/>
<path d="M3040 1158 c0 -10 30 -78 35 -78 6 0 -16 63 -26 75 -5 5 -9 6 -9 3z"/>
<path d="M3082 1025 c6 -14 13 -24 14 -22 6 6 -9 47 -17 47 -5 0 -3 -11 3 -25z"/>
<path d="M3250 1040 c0 -5 5 -10 10 -10 6 0 10 5 10 10 0 6 -4 10 -10 10 -5 0
-10 -4 -10 -10z"/>
</g>
</svg>
