<?xml version="1.0" standalone="no"?>
<!DOCTYPE svg PUBLIC "-//W3C//DTD SVG 20010904//EN"
 "http://www.w3.org/TR/2001/REC-SVG-20010904/DTD/svg10.dtd">
<svg version="1.0" xmlns="http://www.w3.org/2000/svg"
 width="569.000000pt" height="529.000000pt" viewBox="0 0 569.000000 529.000000"
 preserveAspectRatio="xMidYMid meet">

<g transform="translate(0.000000,529.000000) scale(0.100000,-0.100000)"
fill="#000000" stroke="none">
<path d="M2583 5170 c-32 -13 -29 -33 12 -77 66 -72 40 -110 -87 -125 -152
-17 -210 -67 -224 -191 l-7 -58 -26 25 c-44 42 -109 66 -184 66 -107 0 -175
-39 -218 -127 -20 -42 -24 -63 -24 -159 0 -112 -9 -144 -41 -144 -8 0 -14 -4
-14 -9 0 -16 38 -23 60 -11 18 9 20 8 20 -15 0 -40 -27 -94 -52 -105 -13 -5
-41 -14 -64 -20 -22 -5 -49 -19 -58 -29 -17 -19 -17 -21 8 -45 21 -21 35 -26
78 -26 135 0 255 121 234 234 -6 31 -5 32 33 33 82 4 131 53 131 133 0 22 -3
40 -7 40 -4 0 -26 -9 -50 -21 -48 -23 -100 -20 -128 8 -20 20 -13 28 13 14 26
-14 78 -14 103 0 25 13 44 58 30 72 -7 7 -18 4 -34 -11 -59 -56 -145 7 -107
79 17 30 30 22 17 -10 -12 -32 -1 -55 31 -63 45 -12 80 30 51 59 -22 22 -2 43
42 43 51 0 90 -27 125 -86 29 -49 38 -53 54 -24 13 25 61 50 94 50 l26 0 -17
36 c-13 26 -14 39 -7 52 13 20 52 28 67 13 6 -6 19 -11 29 -11 25 0 25 70 0
93 -21 19 -73 22 -102 7 -16 -8 -18 -7 -14 4 10 25 56 38 100 27 21 -6 59 -15
84 -22 88 -22 190 30 190 97 0 19 -7 48 -15 63 -17 34 -70 81 -91 81 -8 0 -14
5 -14 10 0 13 6 13 40 -5 38 -19 38 -7 3 27 -34 31 -61 39 -90 28z"/>
<path d="M3060 5173 c-21 -8 -50 -34 -62 -56 -9 -17 -8 -17 22 -2 17 9 37 14
43 12 7 -2 -5 -12 -26 -22 -48 -23 -87 -74 -94 -122 -7 -53 22 -87 91 -109 45
-14 61 -15 97 -5 109 31 128 33 155 19 15 -7 30 -19 32 -26 3 -11 0 -12 -16
-3 -11 6 -36 11 -56 11 -42 0 -66 -28 -66 -77 0 -26 4 -33 19 -33 11 0 23 5
26 10 3 6 19 10 35 10 38 0 51 -40 27 -82 -16 -28 -16 -28 11 -28 33 0 87 -32
102 -60 11 -20 13 -18 47 34 42 63 83 89 133 84 37 -3 41 -14 25 -65 -10 -33
37 -51 72 -27 21 13 24 21 20 51 -5 29 -4 33 8 23 8 -7 15 -27 15 -45 0 -60
-62 -85 -113 -45 -33 26 -37 25 -37 -5 0 -54 66 -81 134 -55 37 14 33 -6 -5
-26 -35 -18 -88 -13 -127 12 -12 8 -27 12 -32 9 -17 -10 -11 -68 10 -102 26
-43 60 -64 108 -66 l40 -1 0 -51 c-1 -89 51 -161 145 -200 65 -27 167 -15 181
21 13 33 -11 51 -100 74 -48 12 -68 37 -79 99 -7 40 -6 43 11 36 30 -12 57
-11 61 3 3 6 -2 12 -10 12 -33 0 -41 30 -42 149 0 127 -13 167 -72 223 -86 82
-264 78 -355 -9 l-28 -27 0 45 c-2 131 -66 190 -229 208 -125 14 -150 48 -86
120 40 43 44 66 16 81 -21 11 -28 11 -51 3z"/>
<path d="M2822 4848 c5 -30 -24 -98 -41 -98 -4 0 -19 12 -34 28 -17 18 -25 34
-21 48 7 28 -20 51 -41 34 -20 -16 -19 -37 1 -48 14 -8 15 -18 10 -56 l-7 -47
-42 23 c-27 15 -43 31 -45 46 -2 15 -10 22 -27 22 -24 0 -35 -16 -28 -37 3 -7
13 -13 24 -13 18 0 22 -9 32 -73 l5 -29 -47 7 c-54 8 -61 12 -61 30 0 20 -32
28 -48 11 -20 -19 -8 -46 20 -46 14 0 44 -22 80 -57 51 -50 61 -56 76 -45 124
90 296 95 417 12 l42 -29 59 60 c32 32 67 59 77 59 25 0 33 28 14 47 -13 13
-19 14 -31 3 -9 -7 -16 -18 -16 -25 0 -12 -88 -30 -98 -20 -2 2 -1 24 2 49 6
36 11 45 29 48 14 2 22 10 22 23 0 29 -49 28 -53 -1 -2 -13 -19 -28 -46 -42
l-44 -21 -5 47 c-4 34 -1 49 9 55 20 11 18 43 -3 51 -21 8 -44 -19 -36 -41 5
-13 -42 -73 -57 -73 -14 0 -49 76 -40 89 13 22 0 41 -27 41 -23 0 -25 -3 -21
-32z"/>
<path d="M2331 4614 c-44 -36 -39 -60 22 -117 l52 -50 -60 33 c-33 19 -82 48
-109 67 -28 18 -51 31 -52 30 -1 -1 1 -19 5 -40 6 -38 7 -39 116 -86 60 -27
111 -53 113 -60 2 -6 -12 -2 -30 9 -54 31 -139 45 -174 29 -33 -16 -44 -58
-20 -79 24 -19 19 -31 -10 -24 -24 6 -25 5 -15 -14 6 -12 26 -26 44 -31 l32
-9 -28 -1 c-38 -1 -31 -23 11 -36 31 -9 44 -25 20 -25 -9 0 -9 -3 -1 -11 6 -6
23 -11 37 -11 14 0 23 -4 20 -9 -3 -5 8 -9 23 -9 33 0 76 28 56 36 -9 4 -9 11
-1 29 9 19 7 30 -6 50 -17 25 -18 26 -31 8 -13 -17 -14 -16 -15 9 0 31 -18 47
-31 27 -6 -10 -9 -7 -9 12 0 34 -10 43 -26 21 -9 -13 -16 -14 -24 -6 -35 34
26 78 76 56 19 -9 23 -16 16 -25 -7 -9 -2 -22 20 -46 l30 -34 47 17 c25 9 52
16 59 16 26 0 10 -21 -33 -42 -37 -18 -45 -27 -45 -50 0 -15 3 -28 7 -28 4 0
49 28 100 61 l93 61 -80 60 c-90 67 -190 157 -175 158 6 0 47 -29 92 -65 96
-76 123 -82 123 -30 0 30 -4 35 -27 40 -48 10 -116 39 -120 52 -2 6 5 14 16
18 27 8 27 30 -1 49 -33 23 -72 19 -107 -10z"/>
<path d="M3252 4624 c-28 -19 -28 -40 -1 -47 12 -3 19 -12 17 -19 -5 -13 -71
-42 -120 -53 -24 -5 -28 -10 -28 -40 0 -53 28 -46 127 31 46 36 87 63 91 60 7
-8 -31 -41 -155 -137 -51 -40 -93 -75 -93 -78 1 -5 161 -111 182 -119 4 -2 8
9 8 25 0 23 -8 32 -45 52 -63 34 -45 52 26 26 l52 -18 28 34 c31 38 35 49 17
49 -8 0 -5 7 6 15 26 20 71 19 90 -1 20 -20 20 -28 0 -45 -14 -11 -18 -11 -29
4 -14 19 -25 13 -26 -17 0 -12 -3 -15 -6 -8 -8 21 -33 -6 -34 -37 0 -14 -3
-20 -6 -13 -8 20 -33 14 -42 -10 -5 -13 -5 -33 0 -46 6 -15 5 -21 -1 -17 -17
11 -11 -11 8 -28 19 -17 78 -24 68 -8 -3 5 6 9 20 9 14 0 31 5 37 11 8 8 8 11
-1 11 -7 0 -12 5 -12 10 0 6 11 10 23 10 13 0 32 9 42 20 18 20 17 20 -16 21
l-34 1 28 8 c53 16 82 59 32 46 -26 -7 -35 8 -11 17 22 9 26 45 6 70 -26 32
-107 29 -179 -7 -29 -15 -51 -22 -49 -15 2 7 53 33 113 58 101 43 109 48 117
79 5 19 8 38 6 43 -2 4 -25 -7 -53 -25 -27 -18 -77 -48 -110 -66 l-60 -33 53
47 c66 60 69 101 11 131 -36 19 -69 19 -97 -1z"/>
<path d="M2789 4600 c-47 -8 -121 -41 -151 -68 -13 -11 -15 -18 -7 -28 8 -10
20 -7 55 16 107 67 257 60 345 -16 14 -13 18 -13 28 0 10 12 6 19 -22 40 -62
48 -163 71 -248 56z"/>
<path d="M2822 4533 c-5 -10 -12 -29 -15 -43 -4 -15 -20 -31 -39 -40 -24 -11
-34 -23 -36 -43 -5 -40 5 -64 20 -49 7 7 20 12 30 12 15 0 18 -9 18 -55 l0
-55 45 0 45 0 0 55 c0 52 1 55 24 55 14 0 28 -5 32 -12 13 -20 24 30 14 58 -6
14 -23 31 -39 37 -21 7 -31 20 -35 40 -11 54 -46 75 -64 40z"/>
<path d="M2710 4311 c-13 -25 -4 -48 21 -56 26 -8 49 11 49 40 0 37 -52 49
-70 16z"/>
<path d="M2910 4311 c-13 -25 -4 -48 21 -56 26 -8 49 11 49 40 0 37 -52 49
-70 16z"/>
<path d="M2610 4285 c-26 -32 13 -81 48 -59 34 22 22 74 -18 74 -10 0 -23 -7
-30 -15z"/>
<path d="M3023 4293 c-21 -8 -16 -61 6 -68 28 -8 51 5 51 29 0 36 -25 53 -57
39z"/>
<path d="M2050 4273 c-47 -17 -66 -77 -37 -117 19 -26 73 -19 69 10 -3 26 20
47 42 38 21 -8 21 -47 -1 -66 -33 -28 -59 -37 -149 -48 -49 -7 -102 -18 -119
-25 -117 -48 -179 -199 -125 -305 23 -44 82 -84 148 -99 l44 -9 -21 21 c-32
35 -53 96 -46 133 7 41 47 74 90 74 55 0 87 -60 48 -91 -15 -12 -16 -12 -10 4
4 10 2 28 -4 39 -8 15 -17 18 -37 13 -60 -14 -72 -87 -23 -136 35 -35 72 -37
119 -9 116 71 87 234 -49 270 -71 19 -126 -8 -176 -86 -6 -11 -12 -14 -12 -8
-1 17 41 75 70 96 61 45 149 42 209 -8 36 -31 57 -67 81 -144 9 -30 18 -45 18
-33 1 11 10 50 21 85 l20 63 -23 19 -22 19 32 -5 c28 -4 33 0 48 31 9 19 30
52 47 73 l30 38 -39 0 c-21 -1 -69 -7 -106 -14 l-68 -13 29 31 c37 39 44 60
32 91 -15 39 -53 52 -95 32 -20 -10 -35 -12 -35 -6 0 5 14 16 31 23 25 10 28
14 14 20 -19 7 -24 7 -45 -1z"/>
<path d="M3595 4270 c-20 -8 -20 -9 1 -9 11 -1 29 -10 38 -20 17 -19 16 -19
-27 -3 -41 15 -46 15 -71 -1 -41 -27 -36 -80 11 -125 25 -23 31 -33 18 -29
-38 11 -139 27 -172 27 l-33 0 36 -47 c20 -27 41 -58 47 -70 7 -16 19 -23 40
-23 29 0 29 0 9 -17 l-21 -18 21 -65 c11 -36 22 -72 25 -80 3 -8 11 10 19 40
18 67 58 127 103 154 71 41 188 11 231 -60 28 -44 25 -64 -2 -24 -35 51 -74
75 -121 75 -161 -2 -227 -194 -95 -275 47 -28 84 -26 119 9 39 39 41 102 4
127 -35 23 -65 10 -65 -28 0 -26 -2 -29 -15 -18 -37 31 1 90 59 90 26 0 41 -7
60 -31 40 -47 32 -116 -21 -171 l-25 -26 43 9 c96 22 159 78 173 154 11 56
-18 139 -65 190 -47 51 -93 70 -202 85 -97 12 -144 32 -159 65 -9 21 -9 29 3
41 21 20 47 8 51 -24 4 -37 49 -43 72 -10 22 31 20 52 -6 82 -27 29 -55 38
-83 26z"/>
<path d="M2522 4238 c-25 -25 -6 -68 30 -68 9 0 22 9 28 19 13 25 13 27 -6 45
-19 19 -36 20 -52 4z"/>
<path d="M3112 4238 c-25 -25 -6 -68 30 -68 9 0 22 9 28 19 13 25 13 27 -6 45
-19 19 -36 20 -52 4z"/>
<path d="M2718 4211 c-74 -24 -140 -66 -205 -133 l-53 -53 173 -207 172 -206
3 105 c3 109 -4 133 -38 133 -10 0 -21 -8 -25 -17 -6 -16 -8 -15 -20 7 -8 14
-14 37 -15 51 0 36 36 79 66 79 28 0 28 -2 9 43 -27 65 -12 142 37 194 l21 23
-34 -1 c-19 0 -60 -8 -91 -18z"/>
<path d="M2850 3896 c0 -319 0 -326 -20 -326 -11 0 -20 7 -20 15 0 12 -16 15
-88 15 -55 0 -92 4 -100 12 -16 16 -15 49 3 72 11 14 12 23 4 33 -31 36 -99
-10 -99 -67 l0 -27 -40 19 c-28 14 -50 18 -74 14 -35 -7 -96 -55 -96 -75 0 -8
74 -11 245 -11 211 0 245 -2 245 -15 0 -12 -16 -15 -81 -15 -44 0 -89 -5 -100
-10 -22 -13 -25 -48 -5 -76 31 -42 -36 -62 -74 -22 -11 13 -20 35 -20 54 l0
32 -38 -20 c-51 -29 -100 -19 -148 29 l-37 36 8 -69 c14 -137 111 -376 151
-373 5 0 84 92 177 205 l167 206 0 -109 c0 -112 -7 -133 -41 -133 -9 0 -20 8
-24 18 -6 14 -9 12 -21 -13 -7 -16 -13 -40 -14 -51 0 -31 37 -74 66 -74 28 0
28 2 9 -43 -20 -48 -19 -93 4 -142 30 -66 51 -79 118 -71 84 9 187 63 261 136
54 54 60 64 49 79 -6 10 -84 104 -172 210 l-160 192 -3 -107 c-3 -111 4 -134
39 -134 10 0 22 8 28 18 8 15 11 14 20 -11 25 -65 -2 -127 -54 -127 -24 0 -24
0 -8 -37 21 -52 13 -132 -18 -177 -13 -20 -27 -36 -31 -36 -5 0 -8 146 -8 325
0 282 2 325 15 325 8 0 15 -7 15 -15 0 -12 16 -15 81 -15 44 0 89 -5 100 -10
22 -13 25 -48 5 -76 -30 -41 36 -62 74 -24 12 12 20 33 20 54 l0 34 37 -19
c21 -10 49 -19 64 -19 30 0 85 35 107 68 l14 22 -251 0 c-216 0 -251 2 -251
15 0 12 16 15 88 15 55 0 92 4 100 12 16 16 15 49 -3 75 -14 20 -14 23 4 33
46 24 91 -7 91 -65 l0 -35 40 21 c54 28 99 20 147 -28 l36 -37 -6 72 c-4 39
-18 106 -32 149 -26 83 -93 214 -112 220 -6 2 -87 -89 -179 -202 l-169 -205
-3 106 c-3 108 4 134 36 134 8 0 21 -8 28 -17 11 -17 13 -15 24 12 24 62 -5
125 -56 125 -22 0 -23 1 -8 35 27 66 8 164 -40 204 -15 12 -16 -17 -16 -313z"/>
<path d="M2437 4174 c-13 -13 -7 -51 9 -65 23 -19 49 1 49 37 0 24 -5 30 -25
32 -14 2 -29 0 -33 -4z"/>
<path d="M3190 4165 c-14 -17 -5 -51 16 -59 22 -8 54 11 54 32 0 38 -46 56
-70 27z"/>
<path d="M2375 4096 c-25 -18 -16 -60 14 -64 31 -5 54 23 41 48 -13 24 -35 31
-55 16z"/>
<path d="M3255 4081 c-9 -30 5 -51 35 -51 30 0 44 21 35 51 -4 13 -16 19 -35
19 -19 0 -31 -6 -35 -19z"/>
<path d="M2304 3996 c-12 -31 0 -51 30 -51 36 0 56 26 37 49 -17 20 -60 21
-67 2z"/>
<path d="M3314 3984 c-8 -31 6 -47 36 -42 53 7 47 68 -6 68 -17 0 -25 -7 -30
-26z"/>
<path d="M2260 3901 c-25 -47 36 -83 64 -38 8 12 8 22 0 35 -16 25 -51 27 -64
3z"/>
<path d="M3360 3901 c-25 -47 36 -83 64 -38 8 12 8 22 0 35 -16 25 -51 27 -64
3z"/>
<path d="M2230 3805 c-26 -32 13 -81 48 -59 34 22 22 74 -18 74 -10 0 -23 -7
-30 -15z"/>
<path d="M3402 3808 c-7 -7 -12 -22 -12 -35 0 -31 47 -44 66 -19 27 38 -21 87
-54 54z"/>
<path d="M2210 3695 c-20 -24 -3 -55 30 -55 34 0 44 12 36 46 -7 28 -46 33
-66 9z"/>
<path d="M3411 3692 c-14 -27 8 -55 40 -50 19 2 24 9 24 33 0 25 -4 31 -27 33
-18 2 -30 -3 -37 -16z"/>
<path d="M2086 3669 c-14 -11 -26 -28 -26 -38 0 -12 -12 -20 -37 -27 -47 -12
-65 -40 -39 -60 11 -8 30 -14 43 -14 18 0 27 -8 35 -30 11 -34 34 -50 71 -50
33 0 40 10 21 32 -27 29 -2 48 62 48 l54 0 0 40 0 40 -54 0 c-63 0 -83 15 -61
47 13 19 13 22 -1 27 -26 10 -40 7 -68 -15z"/>
<path d="M3531 3681 c-12 -8 -12 -12 -2 -25 26 -31 6 -46 -59 -46 l-60 0 0
-40 0 -40 54 0 c62 0 88 -19 68 -50 -14 -22 -6 -30 29 -30 28 0 69 39 69 66 0
8 10 14 24 14 13 0 34 8 46 18 21 17 22 19 5 36 -10 9 -30 20 -46 23 -20 4
-31 13 -35 30 -11 41 -60 65 -93 44z"/>
<path d="M1622 3522 c-18 -9 -42 -32 -53 -50 -23 -35 -22 -36 15 -22 34 13 51
5 77 -36 56 -91 159 -80 159 17 0 33 -6 47 -34 75 -29 29 -41 34 -83 34 -27 0
-63 -8 -81 -18z"/>
<path d="M3910 3513 c-44 -39 -52 -103 -20 -138 42 -44 110 -23 145 45 18 34
46 45 75 30 31 -17 35 -5 10 30 -29 41 -69 60 -129 60 -41 0 -57 -5 -81 -27z"/>
<path d="M2210 3485 c-15 -19 -4 -52 21 -60 38 -12 65 35 37 63 -16 16 -43 15
-58 -3z"/>
<path d="M3412 3484 c-13 -23 -4 -52 20 -59 26 -9 50 13 46 44 -2 20 -9 27
-30 29 -17 2 -30 -3 -36 -14z"/>
<path d="M1866 3467 c-29 -29 -25 -63 7 -73 15 -5 27 1 43 21 17 22 28 27 49
23 l27 -6 -23 24 c-38 36 -73 40 -103 11z"/>
<path d="M3743 3470 c-38 -23 -43 -39 -10 -33 17 3 28 -2 41 -21 9 -14 25 -26
35 -26 48 0 52 72 5 90 -33 13 -34 13 -71 -10z"/>
<path d="M1525 3394 c-14 -15 -25 -36 -25 -47 0 -20 1 -20 20 -2 20 18 21 18
48 -8 16 -15 35 -27 43 -27 35 0 51 49 29 91 -17 30 -84 26 -115 -7z"/>
<path d="M4057 3402 c-21 -23 -22 -56 -1 -76 22 -22 41 -20 68 9 28 30 30 31
56 3 24 -26 25 -20 6 27 -8 18 -23 38 -34 44 -31 17 -77 13 -95 -7z"/>
<path d="M1932 3398 c-18 -18 -14 -46 13 -112 13 -33 23 -62 21 -64 -6 -6 -54
80 -61 109 -5 20 -12 25 -41 26 -19 1 -34 0 -34 -2 0 -19 38 -99 61 -130 27
-36 25 -35 -15 9 -26 26 -49 59 -52 71 -5 22 -9 23 -62 18 -32 -3 -58 -7 -59
-8 -2 -1 10 -22 26 -47 17 -26 63 -72 110 -107 45 -34 81 -64 81 -67 0 -9 -91
46 -135 82 -22 18 -58 60 -79 93 -39 59 -39 60 -55 38 -13 -16 -16 -38 -13
-84 3 -55 7 -65 31 -82 31 -23 112 -56 186 -77 l50 -14 -50 6 c-71 9 -147 40
-207 85 -29 21 -60 39 -69 39 -23 0 -49 -32 -49 -62 0 -56 79 -95 212 -106
l93 -7 -90 -6 c-49 -4 -137 -7 -195 -8 -58 -1 -122 -4 -142 -7 -33 -6 -38 -10
-38 -34 0 -15 8 -38 19 -51 16 -20 27 -23 75 -21 31 1 90 9 133 17 132 25 100
10 -76 -35 l-44 -12 21 -21 c16 -16 37 -22 84 -25 59 -3 69 0 148 43 142 76
232 112 215 85 -3 -5 -14 -10 -24 -10 -10 0 -73 -34 -141 -77 l-123 -76 31
-29 c18 -15 40 -28 50 -28 22 0 74 32 132 80 52 43 139 100 154 100 5 0 -10
-13 -35 -28 -91 -59 -148 -149 -132 -211 27 -111 168 -138 238 -45 22 29 18
33 -20 23 -68 -19 -115 12 -115 75 0 23 5 48 10 56 7 11 10 4 10 -25 0 -60 22
-85 74 -85 60 0 75 20 36 49 -56 41 -35 120 44 165 58 34 97 40 139 22 52 -21
74 -77 46 -116 -8 -12 -9 -10 -4 8 9 32 -2 57 -31 70 -71 33 -144 -11 -144
-88 0 -80 58 -150 124 -150 13 0 57 16 97 35 71 34 130 44 157 26 9 -5 -7 -10
-42 -14 -99 -10 -188 -79 -160 -124 19 -31 52 -26 122 16 109 65 162 78 182
42 16 -30 12 -47 -17 -81 -20 -25 -24 -36 -16 -49 16 -25 60 -26 73 -2 18 34
24 145 11 198 -19 77 -54 118 -175 207 -131 98 -192 163 -240 260 -41 81 -52
73 -43 -27 6 -61 6 -62 -8 -28 -20 45 -41 128 -60 235 -8 50 -21 94 -28 98
-13 9 -61 11 -69 3 -2 -3 4 -55 14 -117 10 -62 16 -117 15 -123 -2 -5 -16 40
-31 100 -15 61 -35 118 -43 127 -19 21 -54 23 -71 6z"/>
<path d="M3574 3402 c-6 -4 -17 -41 -24 -82 -15 -97 -48 -227 -64 -259 -12
-21 -13 -14 -8 52 2 43 1 77 -4 76 -5 0 -24 -31 -42 -70 -41 -85 -119 -172
-221 -243 -159 -113 -197 -170 -195 -301 2 -103 15 -137 50 -133 42 5 53 32
26 61 -14 15 -22 36 -22 60 0 31 4 38 24 43 33 8 80 -9 159 -56 69 -42 95 -48
115 -28 47 47 -41 124 -155 135 -35 4 -50 9 -41 14 27 18 86 8 157 -26 40 -19
87 -35 105 -35 65 0 116 65 116 145 0 38 -5 52 -29 76 -55 55 -141 31 -141
-39 0 -28 -3 -33 -10 -22 -39 61 37 143 116 124 76 -17 154 -87 154 -137 0
-11 -15 -34 -34 -53 -32 -32 -33 -35 -16 -44 10 -6 34 -10 53 -10 43 0 70 29
71 74 1 40 12 38 21 -5 14 -61 -46 -108 -113 -89 -20 5 -38 8 -40 6 -2 -3 11
-21 30 -41 60 -66 163 -57 208 18 47 77 2 171 -119 249 -25 15 -42 28 -38 28
19 0 89 -44 164 -103 45 -35 93 -67 107 -71 32 -8 72 8 86 33 9 18 5 24 -32
48 -128 81 -203 123 -219 123 -10 0 -21 5 -24 10 -13 22 52 -3 178 -66 110
-55 136 -64 182 -64 42 0 60 5 82 24 l28 24 -45 12 c-79 20 -166 50 -130 43
120 -20 218 -30 238 -22 28 11 59 76 43 92 -9 9 -106 15 -416 28 -37 1 -25 4
44 10 146 13 236 69 212 132 -16 41 -53 45 -98 9 -52 -40 -111 -69 -180 -87
-82 -21 -100 -17 -24 6 76 22 164 63 182 85 20 24 18 125 -3 152 l-17 23 -22
-42 c-29 -58 -113 -138 -180 -172 l-54 -28 35 28 c19 15 57 46 85 69 47 38
114 119 104 128 -2 2 -28 6 -57 8 -51 5 -54 4 -69 -26 -22 -44 -73 -106 -86
-106 -6 0 1 12 16 28 26 27 66 106 67 129 0 8 -11 12 -30 10 -26 -3 -34 -13
-66 -76 -20 -40 -38 -71 -40 -68 -2 2 8 32 22 66 28 70 28 108 1 125 -13 8
-24 7 -44 -4 -24 -13 -31 -30 -56 -133 -16 -65 -31 -116 -34 -114 -2 3 5 58
16 122 11 65 18 122 15 126 -6 11 -55 11 -70 1z"/>
<path d="M2234 3385 c-25 -18 -11 -65 20 -65 30 0 50 23 41 48 -7 25 -39 34
-61 17z"/>
<path d="M3405 3386 c-25 -18 -16 -60 14 -64 31 -5 54 23 41 48 -13 24 -35 31
-55 16z"/>
<path d="M1524 3277 c-21 -18 -28 -35 -32 -75 -2 -29 -2 -52 1 -52 3 0 17 11
31 25 16 16 36 25 55 25 20 0 34 7 41 19 14 28 13 38 -10 61 -26 26 -53 25
-86 -3z"/>
<path d="M4092 3284 c-17 -12 -22 -24 -20 -47 3 -28 7 -32 42 -38 25 -4 48
-16 63 -33 l23 -27 0 51 c0 44 -5 56 -29 81 -34 33 -47 35 -79 13z"/>
<path d="M2260 3270 c-15 -28 4 -52 39 -48 22 2 26 8 26 33 0 25 -4 31 -27 33
-19 2 -30 -3 -38 -18z"/>
<path d="M3360 3275 c-20 -24 0 -50 36 -50 26 0 29 4 29 30 0 25 -4 31 -26 33
-15 2 -31 -4 -39 -13z"/>
<path d="M2307 3193 c-14 -13 -6 -53 12 -63 15 -7 24 -5 41 8 19 16 21 22 11
40 -11 21 -50 30 -64 15z"/>
<path d="M3316 3184 c-10 -27 -7 -43 13 -54 11 -5 26 -7 35 -4 21 8 30 42 16
59 -16 20 -56 19 -64 -1z"/>
<path d="M2367 3104 c-14 -14 -7 -53 12 -63 26 -14 54 8 49 40 -2 17 -10 25
-28 27 -14 2 -29 0 -33 -4z"/>
<path d="M3260 3095 c-14 -17 -5 -51 16 -59 22 -8 54 11 54 32 0 38 -46 56
-70 27z"/>
<path d="M2443 3023 c-21 -8 -16 -61 6 -68 30 -9 51 5 51 35 0 33 -24 47 -57
33z"/>
<path d="M3190 3015 c-26 -32 13 -81 48 -59 34 22 22 74 -18 74 -10 0 -23 -7
-30 -15z"/>
<path d="M2517 2953 c-26 -26 12 -80 47 -67 21 8 30 42 16 59 -13 15 -51 20
-63 8z"/>
<path d="M3106 2944 c-10 -27 -7 -43 13 -54 11 -5 26 -7 35 -4 37 14 23 74
-18 74 -13 0 -27 -7 -30 -16z"/>
<path d="M2610 2895 c-14 -17 -5 -51 16 -59 22 -8 54 11 54 32 0 38 -46 56
-70 27z"/>
<path d="M3017 2904 c-13 -13 -7 -51 9 -65 23 -19 49 1 49 37 0 24 -5 30 -25
32 -14 2 -29 0 -33 -4z"/>
<path d="M2716 2865 c-19 -20 -20 -26 -3 -49 26 -36 84 4 61 42 -15 23 -38 26
-58 7z"/>
<path d="M2916 2865 c-19 -20 -20 -26 -3 -49 26 -36 84 4 61 42 -15 23 -38 26
-58 7z"/>
<path d="M2800 2815 c0 -48 -3 -55 -19 -55 -11 0 -23 5 -26 10 -13 21 -25 9
-25 -25 0 -37 28 -75 55 -75 9 0 18 -12 21 -29 7 -34 37 -66 53 -57 6 4 16 24
22 45 8 27 19 40 40 48 32 12 51 49 42 82 -6 24 -14 26 -30 10 -24 -24 -43 -2
-43 51 l0 50 -45 0 -45 0 0 -55z"/>
<path d="M2810 2525 l0 -45 -40 0 -40 0 0 -40 0 -40 40 0 40 0 0 -95 0 -95 35
0 35 0 0 95 0 95 40 0 40 0 0 40 0 40 -40 0 -40 0 0 45 c0 45 0 45 -35 45 -35
0 -35 0 -35 -45z"/>
<path d="M3170 1931 c0 -77 0 -78 -23 -74 -72 14 -166 -48 -187 -122 -17 -60
-9 -149 17 -183 42 -57 126 -61 180 -10 l23 21 0 -26 c0 -25 3 -27 40 -27 l40
0 0 250 0 250 -45 0 -45 0 0 -79z m-2 -211 c3 -86 -19 -134 -65 -138 -47 -5
-67 30 -61 105 6 69 40 106 92 101 31 -3 31 -3 34 -68z"/>
<path d="M3880 1931 c0 -77 0 -78 -23 -74 -66 13 -166 -47 -187 -113 -18 -53
-9 -158 16 -191 43 -58 126 -63 181 -11 l23 21 0 -26 c0 -25 3 -27 40 -27 l40
0 0 250 0 250 -45 0 -45 0 0 -79z m-2 -211 c3 -86 -19 -134 -65 -138 -43 -4
-63 26 -63 96 0 46 4 58 30 83 23 24 37 30 62 27 l33 -3 3 -65z"/>
<path d="M4440 1936 l0 -73 -51 -6 c-115 -14 -169 -76 -169 -196 0 -36 6 -77
13 -90 33 -64 120 -85 178 -42 29 21 29 21 29 1 0 -17 6 -20 40 -20 l40 0 0
250 0 250 -40 0 -40 0 0 -74z m-16 -152 c17 -7 22 -72 10 -132 -13 -62 -67
-91 -106 -55 -21 19 -25 106 -7 147 17 36 64 55 103 40z"/>
<path d="M4950 1760 l0 -250 45 0 45 0 0 250 0 250 -45 0 -45 0 0 -250z"/>
<path d="M1485 1980 c-37 -41 11 -104 61 -81 50 23 34 101 -21 101 -12 0 -30
-9 -40 -20z"/>
<path d="M2804 1975 c-20 -31 -10 -63 23 -76 55 -21 98 46 55 84 -27 24 -59
21 -78 -8z"/>
<path d="M660 1788 c0 -205 7 -230 72 -264 47 -24 152 -24 202 1 80 40 95 86
96 303 l0 142 -45 0 -45 0 0 -154 c0 -210 -11 -236 -103 -236 -33 0 -49 6 -65
23 -21 22 -22 32 -22 195 l0 172 -45 0 -45 0 0 -182z"/>
<path d="M1250 1849 c-13 -5 -33 -17 -42 -26 -17 -15 -18 -15 -18 5 0 19 -6
22 -40 22 l-40 0 0 -170 0 -170 39 0 39 0 4 104 c4 125 21 161 79 161 l34 0 3
-132 3 -133 45 0 45 0 -3 150 c-3 136 -5 151 -24 171 -24 24 -88 33 -124 18z"/>
<path d="M2030 1838 c-59 -31 -84 -80 -83 -164 1 -112 54 -166 162 -166 33 0
73 3 90 7 27 6 31 11 31 42 0 34 0 34 -32 26 -90 -22 -154 0 -160 57 l-3 25
102 3 c114 3 119 7 104 75 -13 53 -37 86 -76 103 -48 20 -84 18 -135 -8z m112
-65 c34 -31 23 -43 -42 -43 -64 0 -73 9 -43 42 20 22 61 23 85 1z"/>
<path d="M2417 1830 l-34 -30 5 25 c4 24 2 25 -42 25 l-46 0 0 -170 0 -170 45
0 45 0 0 93 c0 116 18 160 68 165 31 3 32 5 32 48 0 37 -3 44 -20 44 -10 0
-35 -13 -53 -30z"/>
<path d="M2594 1849 c-46 -13 -79 -53 -79 -98 0 -49 17 -69 83 -97 37 -17 52
-29 52 -44 0 -28 -35 -43 -86 -35 l-44 6 0 -35 c0 -34 2 -36 33 -37 124 -6
187 31 187 111 0 43 -25 71 -87 95 -75 30 -65 75 18 75 47 0 49 1 49 29 0 17
-6 31 -16 35 -21 8 -73 6 -110 -5z"/>
<path d="M3405 1854 c-11 -3 -30 -7 -42 -10 -19 -3 -23 -11 -23 -40 0 -33 2
-36 23 -30 85 26 147 14 147 -28 0 -21 -6 -25 -47 -31 -58 -8 -119 -38 -133
-64 -5 -11 -10 -37 -10 -59 0 -51 33 -83 87 -84 42 0 98 23 106 44 3 7 6 1 6
-14 1 -26 4 -28 41 -28 l40 0 0 129 c0 142 -7 172 -44 196 -25 17 -115 28
-151 19z m105 -214 c0 -26 -43 -70 -68 -70 -25 0 -45 24 -40 47 4 22 44 43 81
43 21 0 27 -5 27 -20z"/>
<path d="M4685 1846 c-64 -29 -95 -85 -95 -169 1 -68 29 -131 70 -152 36 -18
150 -22 191 -6 22 8 25 14 21 41 -3 20 -9 29 -17 26 -7 -2 -33 -7 -57 -11 -70
-11 -118 20 -118 76 0 18 8 19 105 19 l105 0 0 38 c0 46 -26 99 -61 125 -34
25 -105 31 -144 13z m105 -75 c18 -36 12 -41 -50 -41 -33 0 -60 3 -60 8 0 4 7
18 16 30 20 29 79 31 94 3z"/>
<path d="M1480 1680 l0 -170 45 0 45 0 0 170 0 170 -45 0 -45 0 0 -170z"/>
<path d="M1610 1842 c0 -4 27 -80 59 -168 l59 -159 45 -3 44 -3 62 164 c33 90
61 166 61 170 0 4 -20 7 -44 7 l-43 0 -31 -87 c-17 -49 -34 -99 -38 -113 -6
-21 -13 -7 -44 85 l-37 110 -46 3 c-26 2 -47 -1 -47 -6z"/>
<path d="M2800 1680 l0 -170 45 0 45 0 0 170 0 170 -45 0 -45 0 0 -170z"/>
<path d="M4035 1298 c-75 -66 -26 -198 73 -198 112 0 161 132 74 200 -36 29
-113 27 -147 -2z"/>
<path d="M660 775 l0 -495 95 0 95 0 2 201 3 201 135 -201 135 -200 118 -1
c64 0 117 1 117 3 0 1 -69 99 -154 217 l-154 215 50 16 c152 50 229 197 184
352 -20 68 -54 111 -115 141 -72 37 -139 46 -331 46 l-180 0 0 -495z m373 318
c65 -33 87 -130 44 -193 -32 -49 -75 -70 -156 -77 l-71 -6 0 146 c0 143 0 146
23 150 35 7 130 -4 160 -20z"/>
<path d="M1640 1005 c-115 -32 -211 -128 -244 -244 -23 -79 -21 -213 5 -296
16 -53 31 -78 68 -115 63 -63 126 -85 246 -84 80 0 98 3 155 30 159 75 239
240 211 432 -20 139 -86 231 -190 267 -67 24 -185 28 -251 10z m166 -161 c56
-27 78 -74 82 -181 4 -85 2 -98 -22 -147 -22 -44 -36 -59 -72 -77 -80 -38
-157 -13 -198 67 -17 31 -21 57 -21 134 0 82 3 101 24 136 42 75 131 104 207
68z"/>
<path d="M2367 1009 c-122 -29 -197 -114 -197 -224 0 -103 42 -154 165 -200
36 -14 77 -32 91 -41 46 -31 43 -93 -6 -119 -32 -17 -133 -20 -192 -6 -35 8
-36 7 -42 -22 -3 -16 -6 -51 -6 -77 l0 -48 88 -7 c237 -19 393 79 392 245 -1
50 -32 113 -71 143 -19 13 -70 40 -113 58 -90 37 -116 58 -116 94 0 58 69 85
173 67 34 -5 64 -8 66 -6 2 2 6 34 9 72 l4 69 -38 6 c-53 9 -161 7 -207 -4z"/>
<path d="M2945 1014 c-11 -3 -50 -12 -88 -21 l-67 -15 6 -67 c8 -95 7 -93 57
-71 24 11 73 24 109 29 129 18 198 -17 198 -102 l0 -43 -92 -11 c-214 -26
-321 -112 -321 -258 -1 -96 43 -156 132 -181 96 -29 213 3 271 75 l30 36 0
-53 0 -52 88 0 87 0 -5 292 c-5 289 -5 294 -30 338 -20 35 -38 51 -84 74 -52
26 -70 30 -165 32 -58 2 -115 1 -126 -2z m215 -451 c0 -46 -35 -107 -76 -133
-18 -13 -46 -20 -76 -20 -38 0 -50 5 -67 26 -28 35 -26 66 4 103 32 38 88 56
178 60 36 1 37 0 37 -36z"/>
<path d="M3820 1004 c-45 -20 -77 -50 -101 -96 -11 -21 -21 -38 -22 -38 -2 0
-1 29 1 65 l4 65 -86 0 -86 0 0 -360 0 -360 89 0 88 0 6 202 c6 225 16 274 67
323 23 22 42 29 85 33 l55 4 0 89 0 89 -32 0 c-18 -1 -49 -8 -68 -16z"/>
<path d="M4590 1005 c-186 -52 -290 -234 -260 -454 27 -195 133 -286 335 -285
77 0 99 4 150 27 157 73 240 239 215 434 -17 136 -85 232 -189 268 -67 24
-185 28 -251 10z m170 -163 c49 -27 74 -81 78 -172 2 -42 -1 -95 -7 -118 -34
-123 -173 -172 -257 -88 -39 39 -54 89 -54 182 0 129 66 214 165 214 22 0 56
-8 75 -18z"/>
<path d="M4020 640 l0 -360 90 0 90 0 0 360 0 360 -90 0 -90 0 0 -360z"/>
</g>
</svg>
